# xmcd
#
# Track frame offsets: 
#        182
#        35415
#        55970
#        78702
#        91370
#        122790
#        138740
#        159757
#        180760
#        195177
#        208660
#        254875
#        278460
#
# Disc length: 4001 seconds
#
# Revision: 1
# Processed by: cddbd v1.5.2PL0 Copyright (c) Steve Scherf et al.
# Submitted via: ExactAudioCopyFreeDBPlugin 1.0
#
DISCID=af0f9f0d
DTITLE=Bob Dylan - A Hard Rain's Gonna Fall (Live)
DYEAR=1963
DGENRE=R&B
TTITLE0=Visions Of Johanna
TTITLE1=4th Time Around
TTITLE2=It's All Over Now, Baby Blue
TTITLE3=My Own True Love
TTITLE4=A HArd Rain's Gonna Fall
TTITLE5=Bob Dylan's Dream
TTITLE6=Boots of Spanish Leather
TTITLE7=John Brown
TTITLE8=Who Killed Davie Moore?
TTITLE9=Blowin' In The Wind
TTITLE10=Desolation Row
TTITLE11=Just Like A Woman
TTITLE12=Mr. Tambourine Man
EXTD=Live at Radio Broadcast, Chicago and \nLive at Adelphi Theatre, D
EXTD=ublin
EXTT0=
EXTT1=
EXTT2=
EXTT3=
EXTT4=
EXTT5=
EXTT6=
EXTT7=
EXTT8=
EXTT9=
EXTT10=
EXTT11=
EXTT12=
PLAYORDER=
